<?xml version="1.0" encoding="UTF-8" ?>
<!DOCTYPE svg PUBLIC "-//W3C//DTD SVG 1.1//EN" "http://www.w3.org/Graphics/SVG/1.1/DTD/svg11.dtd">
<svg width="295pt" height="86pt" viewBox="0 0 295 86" version="1.1" xmlns="http://www.w3.org/2000/svg">
<g id="#db202cff">
<path fill="#db202c" opacity="1.00" d=" M 205.22 10.18 C 209.61 9.89 214.43 9.36 218.42 11.65 C 221.44 13.35 223.68 16.51 224.00 19.99 C 224.84 25.97 224.38 32.01 224.49 38.02 C 224.36 44.65 224.93 51.35 223.78 57.92 C 222.65 63.16 217.27 66.85 212.01 66.45 C 208.51 66.18 204.77 66.19 201.71 64.22 C 196.70 61.50 194.85 55.37 195.03 50.00 C 195.10 40.64 194.92 31.27 195.11 21.91 C 195.32 16.23 199.42 10.95 205.22 10.18 M 206.09 18.99 C 205.49 20.96 204.87 22.95 204.98 25.04 C 205.05 33.71 204.97 42.39 205.02 51.06 C 205.01 53.60 205.85 57.27 208.97 57.44 C 210.85 58.03 212.50 56.98 213.96 55.94 C 214.44 44.00 214.40 32.03 213.99 20.09 C 213.21 19.37 212.42 18.65 211.65 17.92 C 209.73 17.91 207.83 18.17 206.09 18.99 Z" />
<path fill="#db202c" opacity="1.00" d=" M 10.05 10.95 C 13.39 10.99 16.73 10.98 20.07 10.90 C 19.95 19.16 20.04 27.42 20.03 35.67 C 24.00 27.40 27.83 19.06 31.96 10.87 C 35.39 10.92 38.82 10.91 42.25 10.85 C 37.55 19.42 33.30 28.22 28.89 36.93 C 33.57 47.51 37.61 58.36 42.28 68.94 C 38.72 69.43 35.15 69.93 31.56 70.10 C 28.81 62.44 25.75 54.90 22.74 47.34 C 21.65 49.80 19.72 52.11 20.02 54.96 C 20.00 60.55 20.06 66.14 20.03 71.73 C 16.70 72.04 13.40 72.58 10.09 73.05 C 9.98 52.35 10.06 31.65 10.05 10.95 Z" />
<path fill="#db202c" opacity="1.00" d=" M 52.99 10.80 C 57.76 10.88 62.54 10.87 67.32 10.75 C 70.67 29.09 73.71 47.50 77.12 65.83 C 73.72 66.01 70.33 66.36 66.95 66.77 C 66.13 63.39 65.92 59.91 65.12 56.53 C 61.47 56.72 57.84 57.10 54.21 57.37 C 53.59 60.83 52.94 64.28 52.74 67.79 C 49.54 68.21 46.34 68.69 43.11 68.94 C 46.38 49.56 49.30 30.11 52.99 10.80 M 59.35 21.63 C 58.62 30.83 56.50 39.85 55.52 49.02 C 58.34 48.73 61.17 48.47 64.00 48.24 C 62.09 39.44 61.35 30.42 59.35 21.63 Z" />
<path fill="#db202c" opacity="1.00" d=" M 80.79 10.77 C 85.36 11.08 90.10 10.21 94.56 11.17 C 96.70 22.76 98.53 34.45 101.11 45.95 C 103.33 34.26 105.18 22.49 107.21 10.76 C 111.82 10.75 116.44 10.76 121.06 10.73 C 120.94 28.42 121.01 46.10 121.03 63.79 C 117.80 63.91 114.57 63.96 111.34 63.98 C 111.46 51.84 110.97 39.67 111.65 27.55 C 109.47 39.70 107.25 51.87 105.70 64.12 C 102.53 64.40 99.36 64.61 96.19 64.86 C 93.62 52.73 91.89 40.43 89.34 28.29 C 89.92 40.50 89.50 52.73 89.62 64.94 C 86.68 65.16 83.75 65.44 80.83 65.72 C 80.80 47.40 80.88 29.08 80.79 10.77 Z" />
<path fill="#db202c" opacity="1.00" d=" M 124.04 10.75 C 127.60 10.74 131.15 10.74 134.71 10.75 C 136.76 18.46 139.76 25.91 141.32 33.74 C 143.89 26.17 146.22 18.51 148.36 10.80 C 151.67 10.72 154.98 10.72 158.30 10.73 C 154.14 22.20 150.18 33.74 146.26 45.30 C 145.66 51.29 146.15 57.35 146.06 63.37 C 142.69 63.36 139.32 63.41 135.96 63.41 C 135.98 57.24 136.27 51.05 135.86 44.89 C 132.10 33.46 128.09 22.09 124.04 10.75 Z" />
<path fill="#db202c" opacity="1.00" d=" M 161.16 10.78 C 167.14 10.75 173.13 10.67 179.11 10.78 C 183.71 10.83 188.52 13.55 189.68 18.25 C 190.31 21.83 190.00 25.52 189.98 29.15 C 189.92 32.74 187.68 35.92 184.55 37.57 C 188.32 39.02 190.14 43.21 190.03 47.03 C 190.04 52.81 189.82 58.64 191.20 64.31 C 187.85 64.05 184.49 63.96 181.14 63.98 C 179.27 57.90 180.61 51.49 179.88 45.28 C 178.73 41.59 174.42 41.85 171.32 41.90 C 171.25 49.20 171.46 56.50 171.21 63.80 C 167.88 63.65 164.55 63.56 161.23 63.48 C 161.09 45.92 161.22 28.35 161.16 10.78 M 171.26 18.71 C 171.38 23.83 171.30 28.95 171.33 34.07 C 174.26 33.83 178.62 34.29 179.88 30.90 C 180.25 27.63 180.01 24.33 179.97 21.05 C 179.27 20.31 178.57 19.57 177.87 18.83 C 175.66 18.76 173.46 18.72 171.26 18.71 Z" />
<path fill="#db202c" opacity="1.00" d=" M 229.94 10.80 C 233.31 10.85 236.69 10.86 240.06 10.82 C 239.96 26.76 240.01 42.70 240.05 58.64 C 245.26 59.11 250.51 59.24 255.69 60.13 C 255.76 63.15 255.75 66.18 255.77 69.21 C 247.14 68.64 238.57 67.41 229.95 66.83 C 229.99 48.15 230.04 29.47 229.94 10.80 Z" />
<path fill="#db202c" opacity="1.00" d=" M 259.04 10.88 C 262.38 10.92 265.73 10.94 269.07 10.88 C 268.92 27.65 269.09 44.42 269.01 61.19 C 274.27 61.95 279.60 62.20 284.83 63.17 C 284.92 66.45 284.92 69.73 284.88 73.01 C 276.29 71.83 267.69 70.67 259.07 69.75 C 259.00 50.13 259.05 30.50 259.04 10.88 Z" />
</g>
</svg>
